# xmcd
#
# Track frame offsets: 
#        150
#        18362
#        36717
#        50834
#        69577
#        82700
#        96829
#        115508
#        131648
#        149238
#        167326
#        182857
#        197688
#
# Disc length: 2830 seconds
#
# Revision: 6
# Processed by: cddbd v1.5.2PL0 Copyright (c) Steve Scherf et al.
# Submitted via: ExactAudioCopyFreeDBPlugin 1.0
#
DISCID=b80b0c0d
DTITLE=Macy Gray - Big
DYEAR=2007
DGENRE=R&B
TTITLE0=Finally Made Me Happy (feat. Natalie Cole)
TTITLE1=Shoo Be Doo
TTITLE2=What I Gotta Do
TTITLE3=Okay
TTITLE4=Glad You're Here (feat. Fergie)
TTITLE5=Ghetto Love
TTITLE6=One For Me
TTITLE7=Strange Behavior
TTITLE8=Slowly
TTITLE9=Get Out
TTITLE10=Treat Me Like Your Money (feat. will.i.am)
TTITLE11=Everybody
TTITLE12=AEIOU [Bonus Track]
EXTD=
EXTT0=
EXTT1=
EXTT2=
EXTT3=
EXTT4=
EXTT5=
EXTT6=
EXTT7=
EXTT8=
EXTT9=
EXTT10=
EXTT11=
EXTT12=
PLAYORDER=
